<svg xmlns="http://www.w3.org/2000/svg" version="1.1" xmlns:xlink="http://www.w3.org/1999/xlink" width="512" height="512" x="0" y="0" viewBox="0 0 36 36" style="enable-background:new 0 0 512 512" xml:space="preserve" class="">
    <g>
        <path fill="#efefef" d="M31.833 8.377c0 6.917 3.583 11.667 3.583 15S33.5 33.71 18.167 33.71.583 24.293.583 20.627c0-17.167 31.25-24.5 31.25-12.25z" opacity="0" data-original="#efefef" class=""></path>
        <path fill="#ffffff" d="M30.354 9c-.827 0-1.5-.673-1.5-1.5s.673-1.5 1.5-1.5 1.5.673 1.5 1.5-.673 1.5-1.5 1.5zm0-2a.5.5 0 1 0 .002 1.002A.5.5 0 0 0 30.354 7z" opacity="0" data-original="#a4afc1" class=""></path>
        <path fill="#f3f3f1" d="m28.54 20.75-1.268-.749-8.522 5.049c-.21.12-.48.2-.75.2s-.54-.08-.75-.2l-8.522-5.049-1.268.749a1.453 1.453 0 0 0 0 2.5l9.79 5.8c.21.12.48.2.75.2s.54-.08.75-.2l9.79-5.8a1.453 1.453 0 0 0 0-2.5z" opacity="1" data-original="#f3f3f1" class=""></path>
        <path fill="#2fdf84" d="M18 21.25c.274 0 .538-.077.753-.203L20.519 20h-5.038l1.766 1.047c.215.126.479.203.753.203z" opacity="1" data-original="#2fdf84" class=""></path>
        <path fill="#2fdf84" d="M29.25 14c0 .532-.284.986-.714 1.247l-9.783 5.8a1.505 1.505 0 0 1-1.506 0l-9.783-5.8c-.43-.261-.714-.715-.714-1.247s.284-.986.714-1.247l9.783-5.8a1.505 1.505 0 0 1 1.506 0l9.783 5.8c.43.261.714.715.714 1.247z" opacity="1" data-original="#2fdf84" class=""></path>
        <path fill="#f3f3f1" d="M28.54 16.75 27.27 16h-.004l-8.512 5.047a1.505 1.505 0 0 1-1.507 0L8.734 16H8.73l-1.27.75a1.453 1.453 0 0 0 0 2.5l9.79 5.8c.21.12.48.2.75.2s.54-.08.75-.2l9.79-5.8a1.453 1.453 0 0 0 0-2.5z" opacity="1" data-original="#f3f3f1" class=""></path>
        <path fill="#d5dbe1" d="M19.5 25.05c.21.12.48.2.75.2s.54-.08.75-.2l7.399-4.383-1.127-.665-8.147 4.827zM9.71 23.25a1.453 1.453 0 0 1 0-2.5l.141-.083-1.123-.665-1.268.748a1.453 1.453 0 0 0 0 2.5l9.79 5.8c.21.12.48.2.75.2s.54-.08.75-.2l.375-.222z" opacity="1" data-original="#d5dbe1" class=""></path>
        <path fill="#00b871" d="M9.714 15.247C9.284 14.986 9 14.532 9 14s.284-.986.714-1.247l9.411-5.58-.372-.22a1.505 1.505 0 0 0-1.506 0l-9.783 5.8c-.43.261-.714.715-.714 1.247s.284.986.714 1.247l9.783 5.8a1.505 1.505 0 0 0 1.506 0l.372-.22z" opacity="1" data-original="#00b871" class=""></path>
        <path fill="#d5dbe1" d="M19.497 21.047a1.505 1.505 0 0 0 1.506 0l7.392-4.383L27.27 16h-.004l-8.141 4.827zM9.71 19.25a1.453 1.453 0 0 1 0-2.5l.145-.086L8.734 16H8.73l-1.27.75a1.453 1.453 0 0 0 0 2.5l9.79 5.8c.21.12.48.2.75.2s.54-.08.75-.2l.375-.222z" opacity="1" data-original="#d5dbe1" class=""></path>
        <path d="M18 22c-.399 0-.79-.105-1.132-.306l-9.786-5.802A2.2 2.2 0 0 1 6 14a2.2 2.2 0 0 1 1.075-1.889l9.789-5.804a2.283 2.283 0 0 1 2.268-.002l9.786 5.802C29.598 12.52 30 13.226 30 14s-.402 1.48-1.075 1.889l-9.789 5.804A2.25 2.25 0 0 1 18 22zm0-14.5a.752.752 0 0 0-.375.101l-9.779 5.798a.693.693 0 0 0 .007 1.206l9.776 5.796a.778.778 0 0 0 .746-.002l9.779-5.798a.693.693 0 0 0-.007-1.206l-9.776-5.796A.745.745 0 0 0 18 7.5z" fill="#000000" opacity="1" data-original="#000000" class=""></path>
        <path d="M18 26c-.387 0-.785-.106-1.123-.299l-9.8-5.806A2.2 2.2 0 0 1 6 18c0-.779.401-1.486 1.072-1.892l1.276-.754a.75.75 0 1 1 .762 1.291l-1.27.75c-.213.13-.34.352-.34.605s.127.475.348.608l9.785 5.796a.822.822 0 0 0 .745-.006l9.78-5.794c.215-.129.342-.351.342-.604s-.127-.475-.348-.608l-1.264-.746a.75.75 0 1 1 .762-1.291l1.27.75C29.599 16.514 30 17.221 30 18s-.401 1.486-1.072 1.892l-9.795 5.804A2.316 2.316 0 0 1 18 26z" fill="#000000" opacity="1" data-original="#000000" class=""></path>
        <path d="M18 30c-.387 0-.785-.106-1.123-.299l-9.8-5.806A2.2 2.2 0 0 1 6 22c0-.779.401-1.486 1.072-1.892l1.276-.754a.75.75 0 1 1 .762 1.291l-1.27.75c-.213.13-.34.352-.34.605s.127.475.348.608l9.785 5.796a.822.822 0 0 0 .745-.006l9.78-5.794c.215-.129.342-.351.342-.604s-.127-.475-.348-.608l-1.264-.746a.75.75 0 1 1 .762-1.291l1.27.75C29.599 20.514 30 21.221 30 22s-.401 1.486-1.072 1.892l-9.795 5.804A2.316 2.316 0 0 1 18 30zM13.25 16.75h-1.5a.75.75 0 0 1 0-1.5h1.5a.25.25 0 0 0 0-.5h-.5c-.965 0-1.75-.785-1.75-1.75s.785-1.75 1.75-1.75h1.5a.75.75 0 0 1 0 1.5h-1.5a.25.25 0 0 0 0 .5h.5c.965 0 1.75.785 1.75 1.75s-.785 1.75-1.75 1.75zM18.25 16.75h-1.5A.75.75 0 0 1 16 16v-4a.75.75 0 0 1 .75-.75h1.5c.965 0 1.75.785 1.75 1.75v2c0 .965-.785 1.75-1.75 1.75zm-.75-1.5h.75a.25.25 0 0 0 .25-.25v-2a.25.25 0 0 0-.25-.25h-.75zM21.75 16.75A.75.75 0 0 1 21 16v-4a.75.75 0 0 1 1.5 0v4a.75.75 0 0 1-.75.75z" fill="#000000" opacity="1" data-original="#000000" class=""></path>
        <path d="M24.25 16.75a.75.75 0 0 1-.468-.164l-2.5-2a.752.752 0 0 1-.001-1.172l2.5-2a.75.75 0 0 1 .937 1.172L22.951 14l1.768 1.414a.752.752 0 0 1-.469 1.336z" fill="#000000" opacity="1" data-original="#000000" class=""></path>
    </g>
</svg>